{"title":"The.Impossible.2012.PROPER.BDRip.XviD-ALLiANCE","uid":8364423,"size":1463631848,"categoryP":"video","categoryS":"movies","magnet":"?xt=urn:btih:9055f9258fd94346952f110756d87fbc9d5dbed9&amp;dn=The.Impossible.2012.PROPER.BDRip.XviD-ALLiANCE&amp;tr=udp%3A%2F%2Ftracker.openbittorrent.com%3A80&amp;tr=udp%3A%2F%2Fopen.demonii.com%3A1337&amp;tr=udp%3A%2F%2Ftracker.coppersurfer.tk%3A6969&amp;tr=udp%3A%2F%2Fexodus.desync.com%3A6969","seeders":1,"leechers":0,"uploader":"R0thschild","files":-1,"time":1365730257,"description":"Movie Name   : The.Impossible.2012.PROPER.BDRip.XviD-ALLiANCE\nRelease Date : 10 April 2013\nTheatre Date : 14 October 2012 (ES)\nRetail Date  : 23 April 2013\nRuntime      : 1h 54min\nCD info      : 2cd 1400mb\nAudio        : english ac3 448kbps\nSubs         : english\nRating       : 7.6/10   58,099 votes\nIMDB         : http://www.imdb.com/title/tt1649419\n\n\nFormat                           : AVI\nFormat/Info                      : Audio Video Interleave\nFile size                        : 697 MiB\nDuration                         : 1h 14mn\nOverall bit rate                 : 1 313 Kbps\nWriting application              : VirtualDubMod 1.5.10.2 (build 2540/release)\nWriting library                  : VirtualDubMod build 2540/release\n\nVideo\nID                               : 0\nFormat                           : MPEG-4 Visual\nFormat profile                   : Advanced Simple@L5\nFormat settings, BVOP            : 2\nFormat settings, QPel            : No\nFormat settings, GMC             : No warppoints\nFormat settings, Matrix          : Default (H.263)\nCodec ID                         : XVID\nCodec ID/Hint                    : XviD\nDuration                         : 1h 14mn\nBit rate                         : 856 Kbps\nWidth                            : 640 pixels\nHeight                           : 272 pixels\nDisplay aspect ratio             : 2.35:1\nFrame rate                       : 23.976 fps\nColor space                      : YUV\nChroma subsampling               : 4:2:0\nBit depth                        : 8 bits\nScan type                        : Progressive\nCompression mode                 : Lossy\nBits/(Pixel*Frame)               : 0.205\nStream size                      : 455 MiB (65%)\nWriting library                  : XviD 61\n\nAudio\nID                               : 1\nFormat                           : AC-3\nFormat/Info                      : Audio Coding 3\nMode extension                   : CM (complete main)\nCodec ID                         : 2000\nDuration                         : 1h 14mn\nBit rate mode                    : Constant\nBit rate                         : 448 Kbps\nChannel(s)                       : 6 channels\nChannel positions                : Front: L C R, Side: L R, LFE\nSampling rate                    : 48.0 KHz\nBit depth                        : 16 bits\nCompression mode                 : Lossy\nDelay relative to video          : 16ms\nStream size                      : 237 MiB (34%)\nAlignment                        : Split accross interleaves\nInterleave, duration             : 42 ms (1.00 video frame)\nInterleave, preload duration     : 500 ms\n\nScreens: &lt;a href=&quot;\nhttp://imgsure.com/?p=436252&quot; rel=&quot;nofollow&quot; target=&quot;_NEW&quot;&gt;\nhttp://imgsure.com/?p=436252&lt;/a&gt; &lt;a href=&quot;\nhttp://imgsure.com/?p=744003&quot; rel=&quot;nofollow&quot; target=&quot;_NEW&quot;&gt;\nhttp://imgsure.com/?p=744003&lt;/a&gt; &lt;a href=&quot;\nhttp://imgsure.com/?p=422938&quot; rel=&quot;nofollow&quot; target=&quot;_NEW&quot;&gt;\nhttp://imgsure.com/?p=422938&lt;/a&gt; &lt;a href=&quot;\nhttp://imgsure.com/?p=298816&quot; rel=&quot;nofollow&quot; target=&quot;_NEW&quot;&gt;\nhttp://imgsure.com/?p=298816&lt;/a&gt;","torrent":{"xt":"urn:btih:9055f9258fd94346952f110756d87fbc9d5dbed9","amp;dn":"The.Impossible.2012.PROPER.BDRip.XviD-ALLiANCE","amp;tr":["udp%3A%2F%2Ftracker.openbittorrent.com%3A80","udp%3A%2F%2Fopen.demonii.com%3A1337","udp%3A%2F%2Ftracker.coppersurfer.tk%3A6969","udp%3A%2F%2Fexodus.desync.com%3A6969"],"infoHash":"9055f9258fd94346952f110756d87fbc9d5dbed9","infoHashBuffer":{"type":"Buffer","data":[144,85,249,37,143,217,67,70,149,47,17,7,86,216,127,188,157,93,190,217]},"announce":[],"urlList":[]}}